Coordinates
version=1
nRows=54
nColumns=12
inDegrees=yes

Units are S.I. units (second, meters, Newtons, ...)
Angles are in degrees

endheader
time	SC_y	SC_z	SC_x	AC_y	AC_z	AC_x	GH_y	GH_z	GH_yy	EL_x	PS_y
       0.0              -17.71         -3.544          54.86           39.1          8.998          9.715         -80.67         -1.998         -15.29          133.8          74.89
   0.01926              -17.71         -3.542          54.86          39.11          8.997          9.711         -80.67         -1.986         -15.27          133.8           74.9
   0.03852              -17.71         -3.541          54.86          39.11          8.996          9.707         -80.66         -1.973         -15.24          133.8          74.91
   0.05778              -17.71          -3.54          54.86          39.11          8.995          9.703         -80.65         -1.959         -15.22          133.8          74.91
   0.07704              -17.72         -3.539          54.87          39.11          8.994          9.698         -80.64         -1.944         -15.19          133.8          74.92
   0.09631              -17.72         -3.537          54.87          39.12          8.993          9.693         -80.62         -1.929         -15.16          133.8          74.93
    0.1156              -17.72         -3.536          54.87          39.12          8.992          9.688         -80.61         -1.912         -15.13          133.7          74.94
    0.1348              -17.72         -3.534          54.87          39.12          8.991          9.682          -80.6         -1.894          -15.1          133.7          74.95
    0.1541              -17.73         -3.532          54.87          39.13           8.99          9.676         -80.59         -1.875         -15.06          133.7          74.96
    0.1733              -17.73          -3.53          54.88          39.13          8.988           9.67         -80.57         -1.854         -15.03          133.7          74.97
    0.1926              -17.74         -3.528          54.88          39.14          8.987          9.663         -80.56         -1.832         -14.99          133.6          74.98
    0.2119              -17.74         -3.526          54.88          39.14          8.985          9.655         -80.54         -1.808         -14.94          133.6           75.0
    0.2311              -17.75         -3.524          54.89          39.14          8.984          9.647         -80.52         -1.783          -14.9          133.6          75.01
    0.2504              -17.75         -3.521          54.89          39.15          8.982          9.638          -80.5         -1.755         -14.85          133.5          75.03
    0.2697              -17.76         -3.518          54.89          39.16           8.98          9.629         -80.48         -1.725         -14.79          133.5          75.04
    0.2889              -17.76         -3.515           54.9          39.16          8.978          9.619         -80.46         -1.693         -14.74          133.4          75.06
    0.3082              -17.77         -3.512           54.9          39.17          8.976          9.607         -80.43         -1.657         -14.67          133.4          75.08
    0.3274              -17.78         -3.508          54.91          39.17          8.973          9.595          -80.4         -1.619          -14.6          133.3           75.1
    0.3467              -17.78         -3.505          54.91          39.18          8.971          9.582         -80.37         -1.577         -14.53          133.3          75.13
     0.366              -17.79           -3.5          54.92          39.19          8.968          9.567         -80.34         -1.531         -14.44          133.2          75.15
    0.3852               -17.8         -3.496          54.93           39.2          8.964          9.551          -80.3          -1.48         -14.35          133.2          75.18
    0.4045              -17.81          -3.49          54.93          39.21          8.961          9.534         -80.26         -1.425         -14.25          133.1          75.21
    0.4237              -17.82         -3.485          54.94          39.22          8.957          9.514         -80.22         -1.363         -14.14          133.0          75.25
     0.443              -17.83         -3.478          54.95          39.23          8.952          9.493         -80.17         -1.295         -14.02          132.9          75.29
    0.4623              -17.85         -3.471          54.96          39.25          8.948          9.469         -80.12          -1.22         -13.88          132.8          75.33
    0.4815              -17.86         -3.464          54.97          39.26          8.942          9.442         -80.06         -1.135         -13.73          132.7          75.38
    0.5008              -17.88         -3.455          54.98          39.28          8.936          9.412         -79.99         -1.041         -13.56          132.6          75.43
      0.52               -17.9         -3.445          54.99           39.3          8.929          9.379         -79.91        -0.9342         -13.36          132.4          75.49
    0.5393              -17.92         -3.434          55.01          39.32          8.921          9.341         -79.83         -0.814         -13.15          132.3          75.56
    0.5586              -17.95         -3.421          55.03          39.35          8.913          9.298         -79.73        -0.6776          -12.9          132.1          75.64
    0.5778              -17.98         -3.407          55.05          39.38          8.903          9.248         -79.62        -0.5218         -12.62          131.9          75.72
    0.5971              -18.01          -3.39          55.07          39.41          8.891          9.192         -79.49        -0.3431         -12.29          131.6          75.82
    0.6164              -18.05         -3.371           55.1          39.45          8.878          9.127         -79.34        -0.1368         -11.92          131.4          75.94
    0.6356              -18.09         -3.349          55.13          39.49          8.862          9.051         -79.17          0.103         -11.49          131.0          76.07
    0.6549              -18.14         -3.323          55.16          39.54          8.844          8.962         -78.97         0.3836         -10.98          130.7          76.23
    0.6741               -18.2         -3.292           55.2          39.61          8.823          8.858         -78.73         0.7143         -10.38          130.2          76.42
    0.6934              -18.28         -3.256          55.26          39.68          8.798          8.733         -78.45          1.107         -9.668          129.7          76.64
    0.7127              -18.36         -3.212          55.32          39.77          8.767          8.584         -78.11          1.578         -8.816          129.1          76.91
    0.7319              -18.47         -3.159          55.39          39.87          8.731          8.404          -77.7          2.148         -7.784          128.3          77.23
    0.7512              -18.59         -3.095          55.48           40.0          8.686          8.184          -77.2          2.845         -6.524          127.4          77.62
    0.7704              -18.75         -3.015          55.59          40.16          8.631          7.912         -76.59          3.704         -4.969          126.2           78.1
    0.7897              -18.95         -2.916          55.72          40.36          8.562          7.573         -75.82          4.776          -3.03          124.8          78.71
     0.809               -19.2         -2.791           55.9           40.6          8.475          7.146         -74.85          6.125        -0.5868          123.0          79.47
    0.8282              -19.51         -2.632          56.11          40.92          8.364          6.604         -73.62          7.841          2.519          120.7          80.44
    0.8475              -19.92         -2.428          56.39          41.33          8.223          5.909         -72.05          10.04          6.494          117.8          81.67
    0.8667              -20.43         -2.167          56.75          41.85          8.041          5.018         -70.03          12.86          11.59          114.0          83.26
     0.886              -21.09         -1.833          57.21          42.51          7.809           3.88         -67.45          16.46          18.11          109.2          85.29
    0.9053              -21.93         -1.414          57.79          43.35          7.518          2.448         -64.21          20.98           26.3          103.1          87.84
    0.9245              -22.94        -0.9027          58.49          44.37          7.163         0.7037         -60.26           26.5          36.29          95.76          90.95
    0.9438              -24.11        -0.3101          59.31          45.55          6.751         -1.318         -55.67           32.9          47.86          87.21          94.55
    0.9631              -25.38         0.3315          60.19          46.82          6.305         -3.508         -50.71          39.82          60.39          77.95          98.46
    0.9823              -26.66         0.9732          61.08           48.1          5.859         -5.697         -45.75          46.74          72.92           68.7          102.4
     1.002              -27.83          1.566          61.89          49.28          5.447         -7.719         -41.17          53.14          84.49          60.15          106.0
     1.021              -28.84          2.077          62.59           50.3          5.092         -9.464         -37.22          58.66          94.48          52.78          109.1
